<svg id="图层_1" data-name="图层 1" xmlns="http://www.w3.org/2000/svg" xmlns:xlink="http://www.w3.org/1999/xlink" viewBox="0 0 70 70"><defs><style>.cls-1{fill:#fff;opacity:0.3;}.cls-2{fill:url(#未命名的渐变_10);}.cls-3{fill:#c4c8cc;}.cls-4{fill:#050b35;}.cls-5{fill:url(#未命名的渐变_10-2);}.cls-6{fill:url(#未命名的渐变_14);}</style><linearGradient id="未命名的渐变_10" x1="36" y1="57.38" x2="36" y2="51.4" gradientUnits="userSpaceOnUse"><stop offset="0" stop-color="#3548be"/><stop offset="0.5" stop-color="#3535be"/><stop offset="1" stop-color="#6196f7"/></linearGradient><linearGradient id="未命名的渐变_10-2" x1="13.84" y1="35.4" x2="57.69" y2="35.4" xlink:href="#未命名的渐变_10"/><linearGradient id="未命名的渐变_14" x1="43.79" y1="45.35" x2="55.66" y2="45.35" gradientUnits="userSpaceOnUse"><stop offset="0" stop-color="#6196f7"/><stop offset="0.76" stop-color="#3535be"/><stop offset="1" stop-color="#3548be"/></linearGradient></defs><title>73(蓝色</title><circle class="cls-1" cx="35" cy="35" r="35"/><path class="cls-2" d="M61.5,57.38c-4.38-1.18-11.65-3.12-25.73-3.12A91.7,91.7,0,0,0,10.5,57.38c.88-1.71,11-6,25.08-6S59.86,55.06,61.5,57.38Z" transform="translate(-1.5 -0.5)"/><path class="cls-3" d="M24.33,40.11,31.71,26a3.43,3.43,0,0,1,6.21,0l3.88,7.44h0l.3.58,3.19,6.12,6.1,12.11c2.89-.94,4.44-4.72,2.82-7.82L39,15.3a4.63,4.63,0,0,0-8.39,0L15.41,44.4c-1.87,3.57.47,8,4.2,8" transform="translate(-1.5 -0.5)"/><polygon class="cls-4" points="43.33 41.27 17.51 53.69 15.17 49.63 33.72 40.02 42.49 38.69 43.33 41.27"/><path class="cls-5" d="M47.79,34,39.2,19.1a5.06,5.06,0,0,0-8.77,0L14.53,46.63a5.07,5.07,0,0,0,4.39,7.6L43.79,39.89l5.56-3.21,8.34-4.8A32.08,32.08,0,0,0,47.79,34Zm-23.94,8.6L31.57,29.2a3.75,3.75,0,0,1,6.49,0L42,36.5C33.77,40,22.82,44.36,23.85,42.57Z" transform="translate(-1.5 -0.5)"/><path class="cls-6" d="M51.39,54l-7.6-14.14,5.56-3.21,5.75,10C56.8,49.57,54.41,53.15,51.39,54Z" transform="translate(-1.5 -0.5)"/></svg>